<svg width="26" height="19" viewBox="0 0 26 19" fill="none" xmlns="http://www.w3.org/2000/svg">
<path d="M13 12.791C14.7669 12.791 16.1992 11.4286 16.1992 9.74797C16.1992 8.06735 14.7669 6.70494 13 6.70494C11.2331 6.70494 9.80077 8.06735 9.80077 9.74797C9.80077 11.4286 11.2331 12.791 13 12.791Z" fill="white"/>
<path d="M22.1547 6.93902V12.5569C22.1547 12.619 22.1806 12.6785 22.2268 12.7224C22.2729 12.7663 22.3355 12.791 22.4008 12.791H25.6V6.70494H22.4008C22.3355 6.70494 22.2729 6.7296 22.2268 6.7735C22.1806 6.8174 22.1547 6.87694 22.1547 6.93902Z" fill="white"/>
<path d="M12.2617 14.1398C11.1634 13.9729 10.1637 13.439 9.44191 12.6341C8.72016 11.8292 8.32369 10.8059 8.32369 9.74797C8.32369 8.69005 8.72016 7.66677 9.44191 6.86186C10.1637 6.05694 11.1634 5.52309 12.2617 5.35617V0.618866H2.12265C1.66577 0.618866 1.22761 0.791499 0.904548 1.09879C0.581488 1.40608 0.399994 1.82285 0.399994 2.25742V5.30046H3.59921C3.82543 5.30046 4.04944 5.34284 4.25844 5.42519C4.46745 5.50753 4.65735 5.62823 4.81731 5.78038C4.97728 5.93254 5.10417 6.11317 5.19074 6.31197C5.27731 6.51077 5.32187 6.72384 5.32187 6.93902V12.5569C5.32187 12.7721 5.27731 12.9852 5.19074 13.184C5.10417 13.3828 4.97728 13.5634 4.81731 13.7156C4.65735 13.8677 4.46745 13.9884 4.25844 14.0708C4.04944 14.1531 3.82543 14.1955 3.59921 14.1955H0.399994V17.2385C0.399994 17.6731 0.581488 18.0899 0.904548 18.3972C1.22761 18.7044 1.66577 18.8771 2.12265 18.8771H12.2617V14.1398Z" fill="white"/>
<path d="M22.4008 14.1955C21.9439 14.1955 21.5057 14.0229 21.1827 13.7156C20.8596 13.4083 20.6781 12.9915 20.6781 12.5569V6.93902C20.6781 6.50444 20.8596 6.08767 21.1827 5.78038C21.5057 5.47309 21.9439 5.30046 22.4008 5.30046H25.6V2.25742C25.6 1.82285 25.4185 1.40608 25.0954 1.09879C24.7724 0.791499 24.3342 0.618866 23.8773 0.618866H13.7383V5.35617C14.8366 5.52309 15.8363 6.05694 16.5581 6.86186C17.2798 7.66677 17.6763 8.69005 17.6763 9.74797C17.6763 10.8059 17.2798 11.8292 16.5581 12.6341C15.8363 13.439 14.8366 13.9729 13.7383 14.1398V18.8771H23.8773C24.3342 18.8771 24.7724 18.7044 25.0954 18.3972C25.4185 18.0899 25.6 17.6731 25.6 17.2385V14.1955H22.4008Z" fill="white"/>
<path d="M3.84531 12.5569V6.93902C3.84531 6.87694 3.81938 6.8174 3.77323 6.7735C3.72708 6.7296 3.66448 6.70494 3.59921 6.70494H0.399994V12.791H3.59921C3.66448 12.791 3.72708 12.7663 3.77323 12.7224C3.81938 12.6785 3.84531 12.619 3.84531 12.5569Z" fill="white"/>
</svg>
